<svg xmlns="http://www.w3.org/2000/svg" xmlns:xlink="http://www.w3.org/1999/xlink" width="400" zoomAndPan="magnify" viewBox="0 0 300 225" height="300" preserveAspectRatio="xMidYMid meet" version="1.0"><defs><clipPath id="272578d63b"><path d="M 6.0625 3 L 294 3 L 294 186 L 6.0625 186 Z M 6.0625 3 " clip-rule="nonzero"/></clipPath><clipPath id="6903a92a97"><path d="M 6.0625 2.207031 L 294 2.207031 L 294 187 L 6.0625 187 Z M 6.0625 2.207031 " clip-rule="nonzero"/></clipPath><clipPath id="d84bf1a64b"><path d="M 109 213 L 191 213 L 191 222.707031 L 109 222.707031 Z M 109 213 " clip-rule="nonzero"/></clipPath><clipPath id="6b2de2ddf4"><path d="M 16.105469 13.726562 L 283.894531 13.726562 L 283.894531 162.976562 L 16.105469 162.976562 Z M 16.105469 13.726562 " clip-rule="nonzero"/></clipPath><clipPath id="ea93242452"><path d="M 16.105469 13.726562 L 283.855469 13.726562 L 283.855469 162.976562 L 16.105469 162.976562 Z M 16.105469 13.726562 " clip-rule="nonzero"/></clipPath><clipPath id="4e89fda1dc"><path d="M 88 18 L 202 18 L 202 160.921875 L 88 160.921875 Z M 88 18 " clip-rule="nonzero"/></clipPath></defs><path fill="#c8c7c7" d="M 129.871094 180.277344 C 127.851562 191.757812 125.835938 203.234375 123.816406 214.71875 L 176.222656 214.71875 C 174.203125 203.234375 172.183594 191.757812 170.167969 180.277344 L 129.871094 180.277344 " fill-opacity="1" fill-rule="nonzero"/><path fill="#393536" d="M 129.871094 180.277344 L 129.046875 180.132812 C 127.027344 191.613281 125.015625 203.09375 122.996094 214.570312 C 122.953125 214.816406 123.019531 215.0625 123.179688 215.253906 C 123.339844 215.445312 123.570312 215.554688 123.816406 215.554688 L 176.222656 215.554688 C 176.472656 215.554688 176.703125 215.445312 176.863281 215.253906 C 177.023438 215.0625 177.089844 214.816406 177.046875 214.570312 C 175.027344 203.09375 173.011719 191.613281 170.992188 180.132812 C 170.921875 179.734375 170.574219 179.441406 170.167969 179.441406 L 129.871094 179.441406 C 129.464844 179.441406 129.121094 179.734375 129.046875 180.132812 L 129.871094 180.277344 L 129.871094 181.113281 L 170.167969 181.113281 L 170.167969 180.277344 L 169.34375 180.421875 C 171.363281 191.902344 173.378906 203.382812 175.398438 214.863281 L 176.222656 214.71875 L 176.222656 213.882812 L 123.816406 213.882812 L 123.816406 214.71875 L 124.640625 214.863281 C 126.660156 203.382812 128.675781 191.902344 130.695312 180.421875 L 129.871094 180.277344 L 129.871094 181.113281 L 129.871094 180.277344 " fill-opacity="1" fill-rule="nonzero"/><g clip-path="url(#272578d63b)"><path fill="#ffffff" d="M 293.136719 172.46875 C 293.136719 179.753906 287.121094 185.660156 279.699219 185.660156 L 20.339844 185.660156 C 12.917969 185.660156 6.90625 179.753906 6.90625 172.46875 L 6.90625 16.246094 C 6.90625 8.960938 12.917969 3.054688 20.339844 3.054688 L 279.699219 3.054688 C 287.121094 3.054688 293.136719 8.960938 293.136719 16.246094 L 293.136719 172.46875 " fill-opacity="1" fill-rule="nonzero"/></g><g clip-path="url(#6903a92a97)"><path fill="#393536" d="M 293.136719 172.46875 L 292.296875 172.46875 C 292.296875 175.875 290.894531 178.960938 288.613281 181.199219 C 286.335938 183.4375 283.183594 184.824219 279.699219 184.824219 L 20.339844 184.824219 C 16.851562 184.824219 13.707031 183.4375 11.425781 181.199219 C 9.148438 178.960938 7.742188 175.878906 7.742188 172.46875 L 7.742188 16.246094 C 7.742188 12.835938 9.148438 9.753906 11.425781 7.511719 C 13.707031 5.277344 16.851562 3.890625 20.339844 3.890625 L 279.699219 3.890625 C 283.183594 3.890625 286.335938 5.277344 288.613281 7.511719 C 290.894531 9.753906 292.296875 12.835938 292.296875 16.246094 L 292.296875 172.46875 L 293.972656 172.46875 L 293.972656 16.246094 C 293.972656 12.371094 292.367188 8.859375 289.785156 6.320312 C 287.203125 3.785156 283.636719 2.21875 279.699219 2.21875 L 20.339844 2.21875 C 16.40625 2.21875 12.835938 3.785156 10.253906 6.320312 C 7.671875 8.859375 6.070312 12.371094 6.070312 16.246094 L 6.070312 172.46875 C 6.070312 176.34375 7.671875 179.855469 10.253906 182.390625 C 12.835938 184.925781 16.40625 186.496094 20.339844 186.496094 L 279.699219 186.496094 C 283.636719 186.496094 287.203125 184.925781 289.785156 182.390625 C 292.367188 179.855469 293.972656 176.34375 293.972656 172.46875 L 293.136719 172.46875 " fill-opacity="1" fill-rule="nonzero"/></g><path fill="#302d2e" d="M 283.683594 164.355469 L 16.359375 164.355469 L 16.359375 12.617188 L 283.683594 12.617188 L 283.683594 164.355469 " fill-opacity="1" fill-rule="nonzero"/><path fill="#3b3838" d="M 161.101562 177.023438 C 160.988281 173.453125 156.070312 170.578125 150.023438 170.578125 C 143.964844 170.578125 139.054688 173.453125 138.941406 177.023438 L 161.101562 177.023438 " fill-opacity="1" fill-rule="nonzero"/><path fill="#ffffff" d="M 189.921875 221.914062 L 110.117188 221.914062 L 110.117188 214.71875 L 189.921875 214.71875 L 189.921875 221.914062 " fill-opacity="1" fill-rule="nonzero"/><g clip-path="url(#d84bf1a64b)"><path fill="#393536" d="M 189.921875 221.914062 L 189.921875 221.078125 L 110.953125 221.078125 L 110.953125 215.554688 L 189.085938 215.554688 L 189.085938 221.914062 L 189.921875 221.914062 L 189.921875 221.078125 L 189.921875 221.914062 L 190.757812 221.914062 L 190.757812 214.71875 C 190.757812 214.496094 190.671875 214.28125 190.515625 214.128906 C 190.355469 213.972656 190.140625 213.882812 189.921875 213.882812 L 110.117188 213.882812 C 109.894531 213.882812 109.679688 213.972656 109.527344 214.128906 C 109.371094 214.28125 109.28125 214.496094 109.28125 214.71875 L 109.28125 221.914062 C 109.28125 222.132812 109.371094 222.347656 109.527344 222.503906 C 109.679688 222.660156 109.894531 222.75 110.117188 222.75 L 189.921875 222.75 C 190.140625 222.75 190.355469 222.660156 190.515625 222.503906 C 190.671875 222.347656 190.757812 222.132812 190.757812 221.914062 L 189.921875 221.914062 " fill-opacity="1" fill-rule="nonzero"/></g><g clip-path="url(#6b2de2ddf4)"><path fill="#ffffff" d="M 16.105469 13.726562 L 283.894531 13.726562 L 283.894531 162.976562 L 16.105469 162.976562 Z M 16.105469 13.726562 " fill-opacity="1" fill-rule="nonzero"/></g><g clip-path="url(#ea93242452)"><path stroke-linecap="butt" transform="matrix(0.749901, 0, 0, 0.75, 16.105971, 13.727397)" fill="none" stroke-linejoin="miter" d="M -0.00066966 -0.00111292 L 357.046258 -0.00111292 L 357.046258 198.998895 L -0.00066966 198.998895 L -0.00066966 -0.00111292 " stroke="#000000" stroke-width="2" stroke-opacity="1" stroke-miterlimit="4"/></g><g clip-path="url(#4e89fda1dc)"><path fill="#d47326" d="M 189.472656 160.949219 L 160.40625 160.949219 C 145.097656 160.949219 127.414062 159.167969 118.789062 144.074219 C 101.632812 114.078125 128.246094 94.238281 132.652344 72.351562 C 137.269531 49.5 118.085938 45.667969 118.085938 45.667969 C 128.695312 58.378906 124.679688 70.925781 116.445312 76.5625 C 95.261719 91.066406 72.914062 54.257812 102.492188 28.285156 C 114.875 17.417969 134.390625 15.4375 148.75 22.285156 C 161.558594 28.382812 168.730469 39.929688 169.484375 53.5625 C 171.507812 89.898438 136.558594 96.25 138.582031 133 C 142.804688 117.136719 165.21875 107.863281 178.050781 103.082031 C 193.390625 113.949219 186.390625 130.8125 201.144531 138.371094 C 181.636719 140.273438 187.617188 119.175781 165.847656 116.375 C 175.65625 118.828125 182.925781 127.726562 182.925781 138.328125 C 182.925781 144.21875 180.6875 149.582031 177.011719 153.601562 L 185.816406 153.601562 C 187.828125 153.601562 189.476562 155.261719 189.476562 157.28125 L 189.476562 160.949219 Z M 189.472656 160.949219 " fill-opacity="1" fill-rule="evenodd"/></g><path fill="#d47326" d="M 192.078125 114.210938 C 195.640625 118.332031 203.066406 119.132812 209.070312 117.011719 C 210.917969 105.617188 208.546875 91.511719 195.324219 87.160156 C 196.308594 79.347656 191.355469 73.601562 191.355469 73.601562 C 184.96875 78.765625 185.320312 84.941406 185.726562 87.238281 C 181.175781 89.871094 180.289062 94.609375 180.628906 99.246094 C 186.09375 103.039062 189.660156 108.035156 192.078125 114.210938 Z M 192.078125 114.210938 " fill-opacity="1" fill-rule="evenodd"/></svg>